<svg width="301" height="59" viewBox="0 0 301 59" fill="none" xmlns="http://www.w3.org/2000/svg">
<path d="M0 0H301L282.5 29.5L301 59H0L20 29.5L0 0Z" fill="#FE2962"/>
<mask id="mask0_63_6980" style="mask-type:alpha" maskUnits="userSpaceOnUse" x="0" y="0" width="301" height="59">
<path d="M0 0H301L282.5 29.5L301 59H0L20 29.5L0 0Z" fill="#FF2A63"/>
</mask>
<g mask="url(#mask0_63_6980)">
<path d="M177.547 49.5421L177.433 49.5496C177.428 49.5874 177.431 49.6257 177.44 49.6626L177.676 49.5839L177.547 49.5421ZM177.547 49.5421L177.433 49.5496C177.428 49.5874 177.431 49.6257 177.44 49.6626L177.676 49.5839L177.547 49.5421ZM177.547 49.5421L177.433 49.5496C177.428 49.5874 177.431 49.6257 177.44 49.6626L177.676 49.5839L177.547 49.5421ZM177.547 49.5421L177.433 49.5496C177.428 49.5874 177.431 49.6257 177.44 49.6626L177.676 49.5839L177.547 49.5421ZM182.99 65.6843C182.963 65.5714 182.93 65.4599 182.892 65.3504C182.873 65.2825 182.838 65.2199 182.791 65.168C182.743 65.1186 182.689 65.0756 182.63 65.0401C182.564 65.012 182.494 64.9953 182.423 64.9908L182.082 65.0135C182 65.0659 181.934 65.1402 181.893 65.2278C181.901 65.2691 181.903 65.3113 181.901 65.3533C181.882 65.4453 181.888 65.5408 181.919 65.6295C181.949 65.7469 181.987 65.8623 182.031 65.9751C182.016 66.0248 182.02 66.0784 182.041 66.1257L182.975 65.8366C182.99 65.7874 182.995 65.7356 182.99 65.6843ZM177.554 49.655L177.44 49.6626L177.676 49.5839L177.554 49.655ZM177.554 49.655L177.44 49.6626L177.676 49.5839L177.554 49.655ZM177.554 49.655L177.44 49.6626L177.676 49.5839L177.554 49.655ZM177.554 49.655L177.44 49.6626L177.676 49.5839L177.554 49.655Z" fill="url(#paint0_linear_63_6980)" fill-opacity="0.6"/>
<path d="M191.679 62.2693C190.201 56.8452 188.424 51.5166 186.8 46.203C186.764 46.0898 186.69 45.9921 186.592 45.9255C186.493 45.8589 186.374 45.8273 186.255 45.8358C185.242 46.0605 184.243 46.3416 183.262 46.6779C182.516 46.9167 181.769 47.1429 181.036 47.3934L181.253 47.2151C182.392 46.4002 183.212 45.2182 183.571 43.8709C183.68 43.1879 183.533 42.489 183.157 41.9072C182.781 41.3254 182.203 40.9014 181.532 40.7158C180.754 40.5639 179.948 40.6377 179.211 40.9282C178.473 41.2187 177.835 41.7138 177.373 42.3542C176.734 43.3824 176.441 44.5852 176.535 45.789C175.218 43.7458 173.252 41.8845 170.986 43.3339C169.913 44.0105 168.909 45.3382 169.703 46.5714C170.563 47.5879 171.748 48.2828 173.06 48.5419C173.855 48.8004 174.667 49.0075 175.489 49.162C173.343 49.9352 171.152 50.598 169.051 51.2799C168.916 51.33 168.806 51.4298 168.743 51.5585C168.681 51.6872 168.671 51.8348 168.715 51.9705C170.409 57.1911 171.867 62.4906 173.893 67.5504C173.933 67.6599 174.008 67.7536 174.106 67.8175C174.204 67.8814 174.32 67.9121 174.437 67.9051C177.029 67.5706 179.581 66.9784 182.055 66.1374C182.033 66.0901 182.03 66.0365 182.045 65.9868C182 65.874 181.963 65.7586 181.933 65.6412C181.902 65.5525 181.895 65.457 181.915 65.365C181.917 65.323 181.914 65.2809 181.906 65.2395C181.948 65.1519 182.013 65.0776 182.095 65.0252L182.209 65.0176C179.792 65.8509 177.302 66.4597 174.772 66.8363C172.877 62.0199 171.479 57.0443 169.907 52.1307C172.009 51.4613 174.109 50.7542 176.196 50.048C175.665 52.4994 174.75 54.8535 173.485 57.0244C173.452 57.0868 173.433 57.155 173.427 57.2249C173.422 57.2949 173.43 57.3652 173.453 57.4318C173.475 57.4984 173.51 57.5599 173.556 57.6128C173.603 57.6657 173.659 57.7089 173.723 57.7398C173.85 57.8011 173.997 57.8106 174.131 57.7663C174.266 57.7221 174.378 57.6275 174.444 57.5027C175.832 55.0525 176.842 52.4097 177.44 49.6626C177.434 49.6337 177.432 49.6042 177.434 49.5747L177.763 49.5529C178.908 50.3467 179.95 51.2987 181.06 52.1452C182.124 53.0544 183.379 53.7161 184.733 54.0821C184.875 54.1111 185.022 54.083 185.143 54.0041C185.264 53.9251 185.349 53.8016 185.378 53.6609C185.408 53.5202 185.379 53.3737 185.3 53.2536C185.221 53.1336 185.096 53.0499 184.955 53.0208C183.717 52.6836 182.575 52.0645 181.621 51.2127C180.724 50.5285 179.875 49.7906 178.941 49.1215L183.194 47.7542C184.053 47.4827 184.933 47.1594 185.833 46.9481C187.44 52.0107 189.045 57.0356 190.439 62.1375C187.965 63.1343 185.378 63.962 182.814 64.763L182.217 64.9415L182.33 64.9339C182.402 64.9384 182.471 64.9551 182.537 64.9832C182.596 65.0188 182.65 65.0618 182.698 65.1112C182.746 65.1631 182.78 65.2256 182.799 65.2936C182.838 65.4031 182.87 65.5145 182.897 65.6275C182.919 65.6921 182.924 65.7613 182.911 65.8283C185.712 64.9737 188.522 64.068 191.23 62.9549C191.297 62.9281 191.358 62.8879 191.409 62.8368C191.461 62.7857 191.501 62.7247 191.527 62.6577C191.578 62.6065 191.617 62.5457 191.644 62.4789C191.67 62.4122 191.682 62.3408 191.679 62.2693ZM174.525 47.8393C173.37 47.616 172.263 47.1947 171.254 46.5943C170.484 46.0908 170.266 45.5 170.93 44.7876C171.138 44.519 171.404 44.3 171.708 44.1466C172.012 43.9933 172.347 43.9096 172.688 43.9016C173.289 43.9888 173.843 44.2711 174.265 44.7044C175.293 45.708 176.099 46.9122 176.634 48.241C175.924 48.1446 175.22 48.0105 174.525 47.8393ZM177.82 48.1117L177.815 48.0364C177.568 46.6647 177.569 45.2599 177.818 43.888C178.008 43.2472 178.405 42.6862 178.948 42.2921C179.492 41.8981 180.151 41.6929 180.823 41.7086C181.082 41.7071 181.338 41.7626 181.572 41.8711C181.807 41.9796 182.014 42.1384 182.179 42.3361C182.344 42.5337 182.463 42.7653 182.526 43.0142C182.59 43.263 182.598 43.5229 182.548 43.775C182.161 44.8232 181.458 45.7282 180.536 46.3676C179.702 47.0515 178.79 47.6369 177.82 48.1117Z" fill="url(#paint1_linear_63_6980)" fill-opacity="0.6"/>
</g>
<path d="M195.101 30V15.4545H201.166C202.255 15.4545 203.167 15.6084 203.901 15.9162C204.639 16.224 205.193 16.6548 205.562 17.2088C205.937 17.7628 206.124 18.4044 206.124 19.1335C206.124 19.6875 206.008 20.1823 205.776 20.6179C205.544 21.0488 205.224 21.4062 204.817 21.6903C204.41 21.9744 203.938 22.1733 203.403 22.2869V22.429C203.991 22.4574 204.533 22.616 205.03 22.9048C205.532 23.1937 205.934 23.5961 206.237 24.1122C206.54 24.6236 206.692 25.2296 206.692 25.9304C206.692 26.7116 206.493 27.41 206.095 28.0256C205.697 28.6364 205.122 29.1193 204.369 29.4744C203.616 29.8248 202.703 30 201.628 30H195.101ZM198.616 27.1662H200.79C201.552 27.1662 202.113 27.0218 202.473 26.733C202.838 26.4441 203.02 26.0417 203.02 25.5256C203.02 25.1515 202.932 24.8295 202.757 24.5597C202.582 24.285 202.333 24.0743 202.011 23.9276C201.689 23.776 201.304 23.7003 200.854 23.7003H198.616V27.1662ZM198.616 21.4347H200.562C200.946 21.4347 201.287 21.3707 201.585 21.2429C201.884 21.1151 202.116 20.9304 202.281 20.6889C202.452 20.4474 202.537 20.1562 202.537 19.8153C202.537 19.3277 202.364 18.9441 202.018 18.6648C201.673 18.3854 201.206 18.2457 200.619 18.2457H198.616V21.4347ZM208.382 30V15.4545L211.898 15.4545V27.1449H217.949V30H208.382ZM223.11 30H219.332L224.24 15.4545H228.92L233.828 30H230.049L226.633 19.1193H226.52L223.11 30ZM222.606 24.2756H230.504V26.946H222.606V24.2756ZM247.913 20.7244H244.362C244.315 20.3598 244.218 20.0308 244.071 19.7372C243.924 19.4437 243.73 19.1927 243.489 18.9844C243.247 18.776 242.961 18.6174 242.629 18.5085C242.303 18.3949 241.94 18.3381 241.543 18.3381C240.837 18.3381 240.229 18.5109 239.717 18.8565C239.211 19.2022 238.82 19.7017 238.545 20.3551C238.276 21.0085 238.141 21.7992 238.141 22.7273C238.141 23.6932 238.278 24.5028 238.553 25.1562C238.832 25.8049 239.223 26.295 239.724 26.6264C240.231 26.9531 240.83 27.1165 241.521 27.1165C241.91 27.1165 242.262 27.0668 242.58 26.9673C242.902 26.8679 243.183 26.7235 243.425 26.5341C243.671 26.34 243.872 26.1056 244.028 25.831C244.189 25.5516 244.301 25.2367 244.362 24.8864L247.913 24.9077C247.852 25.5516 247.665 26.1861 247.352 26.8111C247.045 27.4361 246.621 28.0066 246.081 28.5227C245.541 29.0341 244.883 29.4413 244.107 29.7443C243.335 30.0473 242.449 30.1989 241.45 30.1989C240.134 30.1989 238.955 29.91 237.913 29.3324C236.876 28.75 236.057 27.9025 235.456 26.7898C234.855 25.6771 234.554 24.3229 234.554 22.7273C234.554 21.1269 234.859 19.7704 235.47 18.6577C236.081 17.545 236.907 16.6998 237.949 16.1222C238.991 15.5445 240.158 15.2557 241.45 15.2557C242.331 15.2557 243.145 15.3788 243.893 15.625C244.642 15.8665 245.3 16.2216 245.868 16.6903C246.436 17.1544 246.898 17.7249 247.253 18.402C247.608 19.0791 247.828 19.8532 247.913 20.7244ZM249.925 30V15.4545H253.441V21.6051H253.632L258.441 15.4545H262.581L257.425 21.946L262.674 30H258.469L254.847 24.2827L253.441 26.0582V30H249.925Z" fill="white"/>
<path d="M194.632 44V36.7273H199.447V37.995H196.17V39.728H199.128V40.9957H196.17V44H194.632ZM200.982 44V36.7273H203.851C204.4 36.7273 204.869 36.8255 205.257 37.022C205.648 37.2161 205.945 37.492 206.149 37.8494C206.355 38.2045 206.458 38.6224 206.458 39.103C206.458 39.5859 206.353 40.0014 206.145 40.3494C205.937 40.6951 205.635 40.9602 205.24 41.1449C204.847 41.3295 204.371 41.4219 203.812 41.4219H201.891V40.1861H203.563C203.857 40.1861 204.101 40.1458 204.295 40.0653C204.489 39.9848 204.633 39.8641 204.728 39.7031C204.825 39.5421 204.874 39.3421 204.874 39.103C204.874 38.8615 204.825 38.6579 204.728 38.4922C204.633 38.3265 204.488 38.201 204.291 38.1158C204.097 38.0282 203.852 37.9844 203.556 37.9844H202.519V44H200.982ZM204.909 40.6903L206.717 44H205.019L203.251 40.6903H204.909ZM209.582 36.7273V44H208.044V36.7273H209.582ZM213.925 44H211.347V36.7273H213.946C214.678 36.7273 215.308 36.8729 215.836 37.1641C216.364 37.4529 216.77 37.8684 217.054 38.4105C217.34 38.9527 217.483 39.6013 217.483 40.3565C217.483 41.1141 217.34 41.7652 217.054 42.3097C216.77 42.8542 216.361 43.272 215.828 43.5632C215.298 43.8544 214.664 44 213.925 44ZM212.885 42.6825H213.861C214.316 42.6825 214.698 42.602 215.008 42.4411C215.321 42.2777 215.555 42.0256 215.711 41.6847C215.87 41.3414 215.949 40.8987 215.949 40.3565C215.949 39.8191 215.87 39.38 215.711 39.0391C215.555 38.6982 215.322 38.4472 215.012 38.2862C214.702 38.1252 214.319 38.0447 213.865 38.0447H212.885V42.6825ZM219.966 44H218.318L220.829 36.7273H222.81L225.317 44H223.67L221.848 38.3892H221.791L219.966 44ZM219.863 41.1413H223.755V42.3416H219.863V41.1413ZM225.524 36.7273H227.247L228.905 39.8594H228.976L230.634 36.7273H232.357L229.704 41.429V44H228.177V41.429L225.524 36.7273ZM239.089 44H236.511V36.7273H239.11C239.842 36.7273 240.472 36.8729 241 37.1641C241.528 37.4529 241.934 37.8684 242.218 38.4105C242.504 38.9527 242.647 39.6013 242.647 40.3565C242.647 41.1141 242.504 41.7652 242.218 42.3097C241.934 42.8542 241.525 43.272 240.993 43.5632C240.462 43.8544 239.828 44 239.089 44ZM238.049 42.6825H239.025C239.48 42.6825 239.862 42.602 240.172 42.4411C240.485 42.2777 240.719 42.0256 240.875 41.6847C241.034 41.3414 241.113 40.8987 241.113 40.3565C241.113 39.8191 241.034 39.38 240.875 39.0391C240.719 38.6982 240.486 38.4472 240.176 38.2862C239.866 38.1252 239.483 38.0447 239.029 38.0447H238.049V42.6825ZM244.286 44V36.7273H249.187V37.995H245.824V39.728H248.935V40.9957H245.824V42.7322H249.201V44H244.286ZM252.163 44H250.515L253.026 36.7273H255.007L257.515 44H255.867L254.045 38.3892H253.988L252.163 44ZM252.06 41.1413H255.952V42.3416H252.06V41.1413ZM258.89 44V36.7273H260.428V42.7322H263.545V44L258.89 44Z" fill="white"/>
<rect x="89" y="20" width="18" height="20" fill="white"/>
<path d="M62.96 46.768C60.656 46.768 58.32 46.512 55.952 46C53.584 45.488 51.504 44.736 49.712 43.744L53.552 35.392C54.992 36.224 56.496 36.848 58.064 37.264C59.664 37.648 61.168 37.84 62.576 37.84C63.856 37.84 64.896 37.632 65.696 37.216C66.528 36.768 66.944 36.112 66.944 35.248C66.944 34.512 66.64 33.952 66.032 33.568C65.424 33.152 64.4 32.944 62.96 32.944H58.496V25.984L67.184 17.152L68.192 20.944H51.44V12.4H76.496V19.36L67.808 28.192L62.384 25.12H65.36C69.584 25.12 72.8 26.064 75.008 27.952C77.216 29.84 78.32 32.272 78.32 35.248C78.32 37.168 77.776 39.008 76.688 40.768C75.632 42.528 73.968 43.968 71.696 45.088C69.456 46.208 66.544 46.768 62.96 46.768ZM98.4924 46.768C95.5164 46.768 92.8764 46.08 90.5724 44.704C88.3004 43.328 86.5084 41.328 85.1964 38.704C83.9164 36.08 83.2764 32.912 83.2764 29.2C83.2764 25.488 83.9164 22.32 85.1964 19.696C86.5084 17.072 88.3004 15.072 90.5724 13.696C92.8764 12.32 95.5164 11.632 98.4924 11.632C101.468 11.632 104.092 12.32 106.364 13.696C108.668 15.072 110.46 17.072 111.74 19.696C113.052 22.32 113.708 25.488 113.708 29.2C113.708 32.912 113.052 36.08 111.74 38.704C110.46 41.328 108.668 43.328 106.364 44.704C104.092 46.08 101.468 46.768 98.4924 46.768ZM98.4924 37.696C99.2284 37.696 99.8844 37.44 100.46 36.928C101.036 36.416 101.484 35.536 101.804 34.288C102.156 33.04 102.332 31.344 102.332 29.2C102.332 27.024 102.156 25.328 101.804 24.112C101.484 22.864 101.036 21.984 100.46 21.472C99.8844 20.96 99.2284 20.704 98.4924 20.704C97.7564 20.704 97.1004 20.96 96.5244 21.472C95.9484 21.984 95.4844 22.864 95.1324 24.112C94.8124 25.328 94.6524 27.024 94.6524 29.2C94.6524 31.344 94.8124 33.04 95.1324 34.288C95.4844 35.536 95.9484 36.416 96.5244 36.928C97.1004 37.44 97.7564 37.696 98.4924 37.696ZM123.999 46L146.943 12.4H155.055L132.111 46H123.999ZM127.215 30.64C125.519 30.64 123.999 30.288 122.655 29.584C121.311 28.848 120.239 27.776 119.439 26.368C118.671 24.96 118.287 23.264 118.287 21.28C118.287 19.296 118.671 17.616 119.439 16.24C120.239 14.832 121.311 13.76 122.655 13.024C123.999 12.288 125.519 11.92 127.215 11.92C128.911 11.92 130.431 12.288 131.775 13.024C133.119 13.76 134.175 14.832 134.943 16.24C135.743 17.616 136.143 19.296 136.143 21.28C136.143 23.264 135.743 24.96 134.943 26.368C134.175 27.776 133.119 28.848 131.775 29.584C130.431 30.288 128.911 30.64 127.215 30.64ZM127.215 25.456C127.759 25.456 128.239 25.168 128.655 24.592C129.103 23.984 129.327 22.88 129.327 21.28C129.327 19.68 129.103 18.592 128.655 18.016C128.239 17.408 127.759 17.104 127.215 17.104C126.703 17.104 126.223 17.408 125.775 18.016C125.327 18.592 125.103 19.68 125.103 21.28C125.103 22.88 125.327 23.984 125.775 24.592C126.223 25.168 126.703 25.456 127.215 25.456ZM151.839 46.48C150.143 46.48 148.623 46.128 147.279 45.424C145.935 44.688 144.863 43.616 144.063 42.208C143.295 40.8 142.911 39.104 142.911 37.12C142.911 35.136 143.295 33.456 144.063 32.08C144.863 30.672 145.935 29.6 147.279 28.864C148.623 28.128 150.143 27.76 151.839 27.76C153.535 27.76 155.055 28.128 156.399 28.864C157.743 29.6 158.799 30.672 159.567 32.08C160.367 33.456 160.767 35.136 160.767 37.12C160.767 39.104 160.367 40.8 159.567 42.208C158.799 43.616 157.743 44.688 156.399 45.424C155.055 46.128 153.535 46.48 151.839 46.48ZM151.839 41.296C152.383 41.296 152.863 41.008 153.279 40.432C153.727 39.824 153.951 38.72 153.951 37.12C153.951 35.52 153.727 34.432 153.279 33.856C152.863 33.248 152.383 32.944 151.839 32.944C151.327 32.944 150.847 33.248 150.399 33.856C149.951 34.432 149.727 35.52 149.727 37.12C149.727 38.72 149.951 39.824 150.399 40.432C150.847 41.008 151.327 41.296 151.839 41.296Z" fill="white"/>
<path d="M99 19L89 31H98L97 39L107 27H98L99 19Z" fill="#FF2963"/>
<path d="M159.653 25.154C159.037 25.154 158.469 25.055 157.948 24.857C157.427 24.659 156.973 24.3803 156.584 24.021C156.203 23.6543 155.906 23.229 155.693 22.745C155.48 22.261 155.374 21.7293 155.374 21.15C155.374 20.5707 155.48 20.039 155.693 19.555C155.906 19.071 156.203 18.6493 156.584 18.29C156.973 17.9233 157.427 17.641 157.948 17.443C158.469 17.245 159.037 17.146 159.653 17.146C160.276 17.146 160.845 17.245 161.358 17.443C161.879 17.641 162.33 17.9233 162.711 18.29C163.092 18.6493 163.389 19.071 163.602 19.555C163.822 20.039 163.932 20.5707 163.932 21.15C163.932 21.7293 163.822 22.2647 163.602 22.756C163.389 23.24 163.092 23.6617 162.711 24.021C162.33 24.3803 161.879 24.659 161.358 24.857C160.845 25.055 160.276 25.154 159.653 25.154ZM159.653 23.35C159.946 23.35 160.218 23.2987 160.467 23.196C160.724 23.0933 160.944 22.9467 161.127 22.756C161.318 22.558 161.464 22.3233 161.567 22.052C161.677 21.7807 161.732 21.48 161.732 21.15C161.732 20.8127 161.677 20.512 161.567 20.248C161.464 19.9767 161.318 19.7457 161.127 19.555C160.944 19.357 160.724 19.2067 160.467 19.104C160.218 19.0013 159.946 18.95 159.653 18.95C159.36 18.95 159.085 19.0013 158.828 19.104C158.579 19.2067 158.359 19.357 158.168 19.555C157.985 19.7457 157.838 19.9767 157.728 20.248C157.625 20.512 157.574 20.8127 157.574 21.15C157.574 21.48 157.625 21.7807 157.728 22.052C157.838 22.3233 157.985 22.558 158.168 22.756C158.359 22.9467 158.579 23.0933 158.828 23.196C159.085 23.2987 159.36 23.35 159.653 23.35ZM167.647 20.677H171.2V22.36H167.647V20.677ZM167.801 25H165.623V17.3H171.662V18.983H167.801V25ZM175.254 20.677H178.807V22.36H175.254V20.677ZM175.408 25H173.23V17.3H179.269V18.983H175.408V25Z" fill="white"/>
<path d="M43.126 40.463C43.126 41.393 42.871 42.119 42.361 42.641C41.851 43.163 41.128 43.424 40.192 43.424L36.7 43.424L36.7 41.642L40.138 41.642C40.678 41.642 41.065 41.537 41.299 41.327C41.533 41.111 41.65 40.817 41.65 40.445C41.65 40.073 41.533 39.782 41.299 39.572C41.065 39.362 40.678 39.257 40.138 39.257L36.7 39.257L36.7 37.502L40.192 37.502C41.128 37.502 41.851 37.763 42.361 38.285C42.871 38.807 43.126 39.533 43.126 40.463ZM43 35.8448L36.7 35.8448L36.7 32.9648C36.7 32.3888 36.793 31.8938 36.979 31.4798C37.165 31.0598 37.435 30.7358 37.789 30.5078C38.137 30.2798 38.551 30.1658 39.031 30.1658C39.505 30.1658 39.916 30.2798 40.264 30.5078C40.612 30.7358 40.882 31.0598 41.074 31.4798C41.26 31.8938 41.353 32.3888 41.353 32.9648L41.353 34.8548L40.579 34.0628L43 34.0628L43 35.8448ZM40.768 34.0628L39.949 34.8548L39.949 33.0728C39.949 32.7008 39.868 32.4248 39.706 32.2448C39.544 32.0588 39.319 31.9658 39.031 31.9658C38.737 31.9658 38.509 32.0588 38.347 32.2448C38.185 32.4248 38.104 32.7008 38.104 33.0728L38.104 34.8548L37.285 34.0628L40.768 34.0628ZM43 27.6642L38.113 27.6642L38.113 29.5992L36.7 29.5992L36.7 23.9562L38.113 23.9562L38.113 25.8822L43 25.8822L43 27.6642ZM43.126 19.7532C43.126 20.2572 43.045 20.7222 42.883 21.1482C42.721 21.5742 42.493 21.9462 42.199 22.2642C41.899 22.5762 41.551 22.8192 41.155 22.9932C40.759 23.1672 40.324 23.2542 39.85 23.2542C39.376 23.2542 38.941 23.1672 38.545 22.9932C38.149 22.8192 37.804 22.5762 37.51 22.2642C37.21 21.9462 36.979 21.5742 36.817 21.1482C36.655 20.7222 36.574 20.2572 36.574 19.7532C36.574 19.2432 36.655 18.7782 36.817 18.3582C36.979 17.9322 37.21 17.5632 37.51 17.2512C37.804 16.9392 38.149 16.6962 38.545 16.5222C38.941 16.3422 39.376 16.2522 39.85 16.2522C40.324 16.2522 40.762 16.3422 41.164 16.5222C41.56 16.6962 41.905 16.9392 42.199 17.2512C42.493 17.5632 42.721 17.9322 42.883 18.3582C43.045 18.7782 43.126 19.2432 43.126 19.7532ZM41.65 19.7532C41.65 19.5132 41.608 19.2912 41.524 19.0872C41.44 18.8772 41.32 18.6972 41.164 18.5472C41.002 18.3912 40.81 18.2712 40.588 18.1872C40.366 18.0972 40.12 18.0522 39.85 18.0522C39.574 18.0522 39.328 18.0972 39.112 18.1872C38.89 18.2712 38.701 18.3912 38.545 18.5472C38.383 18.6972 38.26 18.8772 38.176 19.0872C38.092 19.2912 38.05 19.5132 38.05 19.7532C38.05 19.9932 38.092 20.2182 38.176 20.4282C38.26 20.6322 38.383 20.8122 38.545 20.9682C38.701 21.1182 38.89 21.2382 39.112 21.3282C39.328 21.4122 39.574 21.4542 39.85 21.4542C40.12 21.4542 40.366 21.4122 40.588 21.3282C40.81 21.2382 41.002 21.1182 41.164 20.9682C41.32 20.8122 41.44 20.6322 41.524 20.4282C41.608 20.2182 41.65 19.9932 41.65 19.7532Z" fill="white"/>
<defs>
<linearGradient id="paint0_linear_63_6980" x1="179.099" y1="40.7385" x2="180.878" y2="67.4766" gradientUnits="userSpaceOnUse">
<stop stop-color="white"/>
<stop offset="1" stop-color="#FF4643"/>
</linearGradient>
<linearGradient id="paint1_linear_63_6980" x1="179.099" y1="40.7385" x2="180.878" y2="67.4766" gradientUnits="userSpaceOnUse">
<stop stop-color="white"/>
<stop offset="1" stop-color="#FF4643"/>
</linearGradient>
</defs>
</svg>
