<svg width="18" height="18" viewBox="0 0 18 18" fill="none" xmlns="http://www.w3.org/2000/svg">
<path d="M1.52245 12.707L8.088 16.2108C8.5817 16.484 9.31969 16.5028 9.74212 16.2768L16.5978 12.6222C17.0202 12.3962 16.9591 11.9911 16.4807 11.7321L15.473 11.2L10.4547 13.8797C10.0577 14.0963 9.56399 14.2046 9.02449 14.2046C8.43918 14.2046 7.8539 14.0633 7.37037 13.8137L2.53019 11.2235L1.40539 11.831C0.98295 12.0571 1.03894 12.448 1.52245 12.707Z" fill="white"/>
<path d="M1.52245 9.4996L8.088 13.0034C8.5817 13.2766 9.31969 13.2954 9.74212 13.0694L16.5978 9.41481C17.0202 9.18877 16.9591 8.78376 16.4807 8.52474L15.473 7.99255L10.4547 10.6723C10.0577 10.8795 9.56399 10.9972 9.02449 10.9972C8.43918 10.9972 7.8539 10.8559 7.37037 10.6063L2.53019 8.01611L1.40539 8.62363C0.98295 8.84969 1.03894 9.24058 1.52245 9.4996Z" fill="white"/>
<path d="M1.52245 6.29258L3.96035 7.59239L8.088 9.79172C8.5817 10.0507 9.31969 10.0837 9.74212 9.85765L14.0428 7.55944L16.5978 6.20311C17.0202 5.97704 16.9591 5.57203 16.4807 5.31301L9.91517 1.80917C9.42147 1.55015 8.68348 1.51717 8.26105 1.74323L1.40539 5.40248C0.98295 5.62855 1.03894 6.03356 1.52245 6.29258Z" fill="white"/>
</svg>
